<svg width="96" height="96" xmlns="http://www.w3.org/2000/svg" xmlns:xlink="http://www.w3.org/1999/xlink" xml:space="preserve" overflow="hidden"><g transform="translate(-16 -181)"><path d="M80.5 232.5 87 239 93.5 232.5 100 239 108 229 100 219 59.5 219C55.9 212.4 49 208 41 208 29.4 208 20 217.4 20 229 20 240.6 29.4 250 41 250 49 250 55.9 245.6 59.5 239L66 239 70 235 74 239 80.5 232.5ZM32 235C28.7 235 26 232.3 26 229 26 225.7 28.7 223 32 223 35.3 223 38 225.7 38 229 38 232.3 35.3 235 32 235Z" stroke="#000000" fill="#969696"/></g></svg>